<?xml version="1.0" encoding="utf-8"?><svg xmlns="http://www.w3.org/2000/svg" xmlns:xlink="http://www.w3.org/1999/xlink"><symbol viewBox="0 0 32 32" id="facebook" xmlns="http://www.w3.org/2000/svg"><path d="M32 16c0-8.838-7.163-16-16-16C7.162 0 0 7.162 0 16c0 7.988 5.85 14.606 13.5 15.806V20.625H9.437V16H13.5v-3.525c0-4.01 2.387-6.225 6.044-6.225 1.75 0 3.581.313 3.581.313V10.5h-2.019c-1.987 0-2.606 1.234-2.606 2.5v3h4.438l-.71 4.625H18.5v11.181C26.15 30.606 32 23.987 32 16z"/></symbol><symbol viewBox="0 0 32 32" id="instagram" xmlns="http://www.w3.org/2000/svg"><path fill-rule="evenodd" clip-rule="evenodd" d="M16 0C7.163 0 0 7.163 0 16s7.163 16 16 16 16-7.163 16-16S24.837 0 16 0zm-3.518 7.518c.91-.041 1.201-.051 3.519-.051h-.003c2.318 0 2.608.01 3.518.051.909.042 1.53.186 2.073.397a4.17 4.17 0 0 1 1.511.984c.475.474.767.95.985 1.511.21.543.354 1.163.397 2.072.04.91.051 1.2.051 3.518 0 2.318-.01 2.608-.051 3.518-.043.908-.187 1.528-.397 2.071a4.187 4.187 0 0 1-.985 1.512 4.19 4.19 0 0 1-1.51.985c-.543.21-1.164.354-2.072.396-.91.041-1.2.052-3.518.052-2.318 0-2.608-.01-3.518-.052-.909-.042-1.53-.185-2.072-.396a4.177 4.177 0 0 1-1.511-.985 4.181 4.181 0 0 1-.984-1.512c-.211-.543-.355-1.163-.397-2.071-.041-.91-.051-1.2-.051-3.518 0-2.317.01-2.608.051-3.519.04-.908.185-1.528.396-2.07.22-.562.51-1.038.985-1.512.475-.475.95-.766 1.512-.984.543-.211 1.163-.355 2.071-.397z"/><path fill-rule="evenodd" clip-rule="evenodd" d="M15.235 9.004h.766c2.278 0 2.548.009 3.448.05.832.038 1.284.177 1.584.293.399.155.682.34.981.639.299.298.483.583.639.981.116.3.256.752.293 1.584.041.9.05 1.17.05 3.447 0 2.278-.009 2.548-.05 3.447-.038.832-.177 1.284-.293 1.584a2.64 2.64 0 0 1-.639.98 2.64 2.64 0 0 1-.98.639c-.301.117-.753.256-1.585.294-.9.04-1.17.05-3.448.05-2.279 0-2.549-.01-3.449-.05-.832-.039-1.283-.178-1.584-.294a2.643 2.643 0 0 1-.981-.639 2.645 2.645 0 0 1-.639-.98c-.117-.3-.256-.752-.294-1.584-.04-.9-.049-1.17-.049-3.449s.008-2.548.05-3.447c.037-.832.176-1.284.293-1.585.155-.398.34-.682.639-.98.298-.3.583-.484.981-.64.3-.117.752-.255 1.585-.294.787-.035 1.092-.046 2.682-.048v.002zm5.32 1.417a1.024 1.024 0 1 0 0 2.049 1.024 1.024 0 0 0 0-2.049zm-8.937 5.58a4.382 4.382 0 1 1 8.765 0 4.382 4.382 0 0 1-8.764 0z"/><path d="M16 13.156a2.845 2.845 0 1 1 0 5.689 2.845 2.845 0 0 1 0-5.69z"/></symbol><symbol viewBox="0 0 18 20" id="map" xmlns="http://www.w3.org/2000/svg"><path d="M16.08 8.364C16.08 14.09 8.54 19 8.54 19S1 14.09 1 8.364c0-1.953.794-3.826 2.208-5.207A7.633 7.633 0 0 1 8.54 1c2 0 3.918.776 5.332 2.157a7.277 7.277 0 0 1 2.208 5.207z"/><path d="M8.54 10.818c1.388 0 2.514-1.099 2.514-2.454 0-1.356-1.126-2.455-2.514-2.455S6.027 7.008 6.027 8.364c0 1.355 1.125 2.454 2.513 2.454z"/></symbol><symbol viewBox="0 0 32 32" id="telegram" xmlns="http://www.w3.org/2000/svg"><path fill-rule="evenodd" clip-rule="evenodd" d="M32 16c0 8.837-7.163 16-16 16S0 24.837 0 16 7.163 0 16 0s16 7.163 16 16zm-21.286-1.466c-1.602.7-3.25 1.42-4.755 2.249-.787.575.259.983 1.239 1.365.156.06.31.12.455.18l.368.116c1.09.348 2.306.735 3.365.152 1.739-.999 3.38-2.154 5.02-3.308.537-.378 1.074-.756 1.615-1.128l.085-.055c.46-.299 1.496-.97 1.113-.045-.906.99-1.876 1.867-2.851 2.749a61.682 61.682 0 0 0-1.961 1.825c-.561.455-1.144 1.372-.516 2.01 1.447 1.013 2.916 2 4.385 2.989l1.432.964c.808.645 2.071.124 2.249-.885l.237-1.391a392.41 392.41 0 0 0 1.265-7.699c.052-.403.112-.806.172-1.21.145-.978.29-1.957.335-2.94-.117-.982-1.307-.766-1.969-.545-3.404 1.295-6.773 2.686-10.13 4.101-.38.169-.765.337-1.153.506z"/></symbol></svg>